<svg xmlns="http://www.w3.org/2000/svg" width="71.1" height="71.026"><path d="M27.8 22.026c2.6.3 5.2 1.2 7.5 2.4 4.2-2.2 9.2-3.1 14.3-2.4 11.8 1.5 21.3 13.3 21.3 25.2v-22c0-11.8-9.5-23.5-21.2-25-14.1-1.9-26.4 8.4-27.8 21.8 1.9-.2 3.9-.2 5.9 0z" fill="#257af4"/><path d="M49.3 22.026c-5.1-.6-9.9.4-14.1 2.5 8.1 4.3 13.9 13.5 13.9 22.7v1.9h21.8v-2.1c.1-11.9-9.6-23.6-21.6-25z" fill="#779ff7"/><path d="M24.4 57.426c-1.7-3.4-2.6-7.1-2.6-11 0-.9 0-1.7.1-2.6.3-3 1.2-5.8 2.4-8.3-1.7-3.3-2.6-7-2.6-10.9 0-.9 0-1.7.1-2.6-11.3 1.2-20.5 10.4-21.7 21.8-.1.9-.1 1.7-.1 2.6 0 3.9.9 7.6 2.6 10.9v.1c4.1 8 12.4 13.6 22 13.6h21.8c-9.6 0-17.9-5.5-22-13.6z" fill="#f73e59"/><path d="M71 49.126H46.4c-9.6 0-17.9-5.6-22-13.6v-.1c-1.3 2.6-2.1 5.4-2.4 8.3-.1.9-.1 1.7-.1 2.6 0 3.9.9 7.6 2.6 10.9v.1c4.1 8 12.4 13.6 22 13.6h24.2c.2 0 .4-.2.4-.4v-21.4z" fill="#fb3"/><path d="M35.3 24.526c-2.3-1.2-4.9-2.1-7.5-2.4-2-.3-4-.3-5.9-.1-.1.8-.1 1.7-.1 2.6 0 3.9.9 7.6 2.6 10.9v.1c4.1 8 12.4 13.6 22 13.6h2.7v-1.9c0-9.3-5.7-18.5-13.8-22.8z" fill="#3e5ccc"/></svg>